REM DIRINDEX 1\2\6,1\2\7,1\2\8,1\3\9,1\3\10,1\3\11,1\4\12,1\4\13,1\4\14,1\5\15,1\5\16,1\5\17,1\5\18
REM DIRNAME folder01,folder02,folder03,folder04,folder05,folder06,folder07,folder08,folder09,folder10,folder11,folder12,folder13,folder14,folder15,folder16,folder17,folder18
TITLE ""
FILE "2Q_j_1250-1263.mp3" MP3
  TRACK 01 AUDIO
    TITLE "6:cjc019_0212"
    INDEX 01 00:00:00
  TRACK 02 AUDIO
    TITLE "0:"
    INDEX 01 00:01:17
  TRACK 03 AUDIO
    TITLE "7:cjc019_0213"
    INDEX 01 00:02:02
  TRACK 04 AUDIO
    TITLE "0:"
    INDEX 01 00:03:08
  TRACK 05 AUDIO
    TITLE "8:cjc019_0214"
    INDEX 01 00:03:59
  TRACK 06 AUDIO
    TITLE "0:"
    INDEX 01 00:08:26
  TRACK 07 AUDIO
    TITLE "6:cjc019_0215"
    INDEX 01 00:09:08
  TRACK 08 AUDIO
    TITLE "0:"
    INDEX 01 00:10:27
  TRACK 09 AUDIO
    TITLE "7:cjc019_0216"
    INDEX 01 00:11:07
  TRACK 10 AUDIO
    TITLE "0:"
    INDEX 01 00:13:18
  TRACK 11 AUDIO
    TITLE "8:cjc019_0217"
    INDEX 01 00:13:69
  TRACK 12 AUDIO
    TITLE "0:"
    INDEX 01 00:17:29
  TRACK 13 AUDIO
    TITLE "6:cjc019_0218"
    INDEX 01 00:18:09
  TRACK 14 AUDIO
    TITLE "0:"
    INDEX 01 00:19:24
  TRACK 15 AUDIO
    TITLE "7:cjc019_0219"
    INDEX 01 00:20:06
  TRACK 16 AUDIO
    TITLE "0:"
    INDEX 01 00:24:51
  TRACK 17 AUDIO
    TITLE "8:cjc019_0220"
    INDEX 01 00:25:29
  TRACK 18 AUDIO
    TITLE "0:"
    INDEX 01 00:27:65
  TRACK 19 AUDIO
    TITLE "6:cjc019_0221"
    INDEX 01 00:28:49
  TRACK 20 AUDIO
    TITLE "0:"
    INDEX 01 00:29:50
  TRACK 21 AUDIO
    TITLE "7:cjc019_0222"
    INDEX 01 00:30:55
  TRACK 22 AUDIO
    TITLE "0:"
    INDEX 01 00:35:64
  TRACK 23 AUDIO
    TITLE "8:cjc019_0223"
    INDEX 01 00:36:44
  TRACK 24 AUDIO
    TITLE "0:"
    INDEX 01 00:39:68
  TRACK 25 AUDIO
    TITLE "6:cjc019_0224"
    INDEX 01 00:40:52
  TRACK 26 AUDIO
    TITLE "0:"
    INDEX 01 00:42:08
  TRACK 27 AUDIO
    TITLE "7:cjc019_0225"
    INDEX 01 00:42:61
  TRACK 28 AUDIO
    TITLE "0:"
    INDEX 01 00:44:56
  TRACK 29 AUDIO
    TITLE "8:cjc019_0226"
    INDEX 01 00:45:39
  TRACK 30 AUDIO
    TITLE "0:"
    INDEX 01 00:51:62
  TRACK 31 AUDIO
    TITLE "6:cjc019_0227"
    INDEX 01 00:52:37
  TRACK 32 AUDIO
    TITLE "0:"
    INDEX 01 00:53:62
  TRACK 33 AUDIO
    TITLE "7:cjc019_0228"
    INDEX 01 00:54:50
  TRACK 34 AUDIO
    TITLE "0:"
    INDEX 01 00:56:20
  TRACK 35 AUDIO
    TITLE "8:cjc019_0229"
    INDEX 01 00:57:01
  TRACK 36 AUDIO
    TITLE "0:"
    INDEX 01 01:00:47
  TRACK 37 AUDIO
    TITLE "6:cjc019_0230"
    INDEX 01 01:01:23
  TRACK 38 AUDIO
    TITLE "0:"
    INDEX 01 01:02:38
  TRACK 39 AUDIO
    TITLE "7:cjc019_0231"
    INDEX 01 01:03:33
  TRACK 40 AUDIO
    TITLE "0:"
    INDEX 01 01:07:08
  TRACK 41 AUDIO
    TITLE "8:cjc019_0232"
    INDEX 01 01:07:61
  TRACK 42 AUDIO
    TITLE "0:"
    INDEX 01 01:11:62
  TRACK 43 AUDIO
    TITLE "6:cjc019_0233"
    INDEX 01 01:12:44
  TRACK 44 AUDIO
    TITLE "0:"
    INDEX 01 01:14:00
  TRACK 45 AUDIO
    TITLE "7:cjc019_0234"
    INDEX 01 01:14:66
  TRACK 46 AUDIO
    TITLE "0:"
    INDEX 01 01:16:60
  TRACK 47 AUDIO
    TITLE "8:cjc019_0235"
    INDEX 01 01:17:30
  TRACK 48 AUDIO
    TITLE "0:"
    INDEX 01 01:21:69
  TRACK 49 AUDIO
    TITLE "6:cjc019_0236"
    INDEX 01 01:22:50
  TRACK 50 AUDIO
    TITLE "0:"
    INDEX 01 01:24:08
  TRACK 51 AUDIO
    TITLE "7:cjc019_0237"
    INDEX 01 01:24:67
  TRACK 52 AUDIO
    TITLE "0:"
    INDEX 01 01:27:20
  TRACK 53 AUDIO
    TITLE "8:cjc019_0238"
    INDEX 01 01:28:00
  TRACK 54 AUDIO
    TITLE "0:"
    INDEX 01 01:32:00
  TRACK 55 AUDIO
    TITLE "6:cjc019_0239"
    INDEX 01 01:32:55
  TRACK 56 AUDIO
    TITLE "0:"
    INDEX 01 01:34:14
  TRACK 57 AUDIO
    TITLE "7:cjc019_0240"
    INDEX 01 01:34:73
  TRACK 58 AUDIO
    TITLE "0:"
    INDEX 01 01:37:22
  TRACK 59 AUDIO
    TITLE "8:cjc019_0241"
    INDEX 01 01:38:06
  TRACK 60 AUDIO
    TITLE "0:"
    INDEX 01 01:42:33
  TRACK 61 AUDIO
    TITLE "6:cjc019_0242"
    INDEX 01 01:43:13
  TRACK 62 AUDIO
    TITLE "0:"
    INDEX 01 01:44:44
  TRACK 63 AUDIO
    TITLE "7:cjc019_0243"
    INDEX 01 01:45:24
  TRACK 64 AUDIO
    TITLE "0:"
    INDEX 01 01:50:51
  TRACK 65 AUDIO
    TITLE "8:cjc019_0244"
    INDEX 01 01:51:28
  TRACK 66 AUDIO
    TITLE "0:"
    INDEX 01 01:56:47
  TRACK 67 AUDIO
    TITLE "6:cjc019_0245"
    INDEX 01 01:57:33
  TRACK 68 AUDIO
    TITLE "0:"
    INDEX 01 01:58:50
  TRACK 69 AUDIO
    TITLE "7:cjc019_0246"
    INDEX 01 01:59:34
  TRACK 70 AUDIO
    TITLE "0:"
    INDEX 01 02:03:32
  TRACK 71 AUDIO
    TITLE "8:cjc019_0247"
    INDEX 01 02:04:10
  TRACK 72 AUDIO
    TITLE "0:"
    INDEX 01 02:08:03
  TRACK 73 AUDIO
    TITLE "6:cjc019_0248"
    INDEX 01 02:08:60
  TRACK 74 AUDIO
    TITLE "0:"
    INDEX 01 02:10:06
  TRACK 75 AUDIO
    TITLE "7:cjc019_0249"
    INDEX 01 02:10:63
  TRACK 76 AUDIO
    TITLE "0:"
    INDEX 01 02:13:54
  TRACK 77 AUDIO
    TITLE "8:cjc019_0250"
    INDEX 01 02:14:33
  TRACK 78 AUDIO
    TITLE "0:"
    INDEX 01 02:17:51
  TRACK 79 AUDIO
    TITLE "6:cjc019_0251"
    INDEX 01 02:18:29
  TRACK 80 AUDIO
    TITLE "0:"
    INDEX 01 02:20:50
  TRACK 81 AUDIO
    TITLE "7:cjc019_0252"
    INDEX 01 02:21:33
  TRACK 82 AUDIO
    TITLE "0:"
    INDEX 01 02:23:44
  TRACK 83 AUDIO
    TITLE "8:cjc019_0253"
    INDEX 01 02:24:24
  TRACK 84 AUDIO
    TITLE "0:"
    INDEX 01 02:28:14
